<svg xmlns="http://www.w3.org/2000/svg" width="21" height="12" viewBox="0 0 21 12"><g><g><path fill="#fbb03b" d="M15.81 2.545h1.531c.41 0 .798.237.95.626l.819 1.898h-3.3zm.84 8.433a.957.957 0 0 1-.948-.949c0-.517.431-.949.949-.949s.949.432.949.95a.957.957 0 0 1-.95.948zm-9.338 0a.957.957 0 0 1-.95-.949c0-.517.432-.949.95-.949.517 0 .949.432.949.95a.957.957 0 0 1-.95.948zm13.006-6.06l-.95-2.2a2.172 2.172 0 0 0-2.005-1.316H15.83v-.56a.842.842 0 0 0-.84-.842H4.291a.557.557 0 0 0-.56.56c0 .303.258.562.56.562h10.375v4.14c0 .518.41.928.927.928h3.731V8.8a.193.193 0 0 1-.194.194h-.69a2.075 2.075 0 0 0-1.79-1.035c-.755 0-1.424.431-1.79 1.035H9.1a2.075 2.075 0 0 0-1.79-1.035c-.754 0-1.423.431-1.79 1.035H3.538a.557.557 0 0 0-.56.56c0 .324.258.562.56.562h1.704a2.069 2.069 0 0 0 2.07 1.984 2.069 2.069 0 0 0 2.071-1.984h5.198a2.069 2.069 0 0 0 2.07 1.984 2.069 2.069 0 0 0 2.071-1.984h.453A1.32 1.32 0 0 0 20.49 8.8V5.78c0-.28-.065-.582-.172-.862z"/></g><g><path fill="#fbb03b" d="M2.675 3.473h3.968c.324 0 .56-.26.56-.561a.557.557 0 0 0-.56-.561H2.675a.557.557 0 0 0-.561.56c0 .303.259.562.56.562z"/></g><g><path fill="#fbb03b" d="M1.618 5.63h3.968c.324 0 .561-.26.561-.561a.557.557 0 0 0-.56-.561h-3.97a.557.557 0 0 0-.56.56c0 .303.259.561.56.561z"/></g><g><path fill="#fbb03b" d="M5.112 7.225a.557.557 0 0 0-.561-.56H.561a.557.557 0 0 0-.561.56c0 .324.259.561.56.561h3.97a.55.55 0 0 0 .582-.56z"/></g></g></svg>