<svg xmlns="http://www.w3.org/2000/svg" width="20" height="15" viewBox="0 0 20 15"><g><g><path fill="#f2f2f2" d="M18.237 2.325l-1.23 12.342H2.246l-.99-12.103L9.626 7.25z"/></g><g><path fill="#f2f2f2" d="M17.82 0L9.626 7.697 1.433 0h8.193z"/></g><g><path fill="#f14336" d="M2.245 3.554v11.113H.908A.908.908 0 0 1 0 13.759V1.917l1.467.04z"/></g><g><path fill="#d32e2a" d="M19.253 1.917V13.76a.908.908 0 0 1-.908.908h-1.337V3.554l.74-1.75z"/></g><g><path fill="#f14336" d="M19.253.908v1.01l-2.245 1.636-7.382 5.38-7.38-5.38L0 1.917V.907C0 .408.407 0 .908 0h.525l8.193 5.972L17.82 0h.525c.501 0 .908.407.908.908z"/></g></g></svg>