<svg xmlns="http://www.w3.org/2000/svg" width="19" height="20" viewBox="0 0 19 20"><g><g><path d="M17.593 10.887c0 5.137-6.91 7.354-8.093 7.681-1.182-.327-8.093-2.533-8.093-7.681v-7.15L9.5 1.38l8.093 2.354zm.9-8.356L9.697-.027a.704.704 0 0 0-.401 0L.5 2.53a.704.704 0 0 0-.5.675v7.681c0 6.685 8.948 8.997 9.331 9.092a.704.704 0 0 0 .352-.004C10.232 19.838 19 17.51 19 10.887v-7.68a.704.704 0 0 0-.507-.676z"/></g><g><path d="M8.796 5.574v.735a2.111 2.111 0 0 0 .352 4.191h1.056a.704.704 0 1 1 0 1.407H8.093a.704.704 0 1 0 0 1.408h.703v.703a.704.704 0 1 0 1.408 0v-.703a2.111 2.111 0 1 0 0-4.222H9.148a.704.704 0 0 1 0-1.408h2.111a.704.704 0 1 0 0-1.407h-1.055v-.704a.704.704 0 1 0-1.408 0z"/></g></g></svg>