<svg xmlns="http://www.w3.org/2000/svg" width="18" height="18" viewBox="0 0 18 18"><g><g><path fill="#fbb03b" d="M5.778 7.167c.399 0 .722.323.722.722a.722.722 0 0 0 1.444 0 2.167 2.167 0 0 0-4.333 0 .722.722 0 0 0 1.445 0c0-.399.323-.722.722-.722z"/></g><g><path fill="#fbb03b" d="M11.556 5.722c-1.197 0-2.167.97-2.167 2.167a.722.722 0 0 0 1.444 0 .722.722 0 0 1 1.445 0 .722.722 0 0 0 1.444 0c0-1.197-.97-2.167-2.166-2.167z"/></g><g><path fill="#fbb03b" d="M8.667 16.555a7.222 7.222 0 1 1 0-14.444 7.222 7.222 0 0 1 0 14.444zm0-15.888a8.667 8.667 0 1 0 8.666 8.666A8.676 8.676 0 0 0 8.667.667z"/></g><g><path fill="#fbb03b" d="M11.045 10.989l-.423.424a2.835 2.835 0 0 1-3.91 0l-.423-.424a.723.723 0 0 0-1.022 1.022l.424.422a4.207 4.207 0 0 0 5.958 0l.425-.422a.723.723 0 0 0-1.022-1.022z"/></g></g></svg>