<svg aria-hidden="true" width="0" height="0" style="position:absolute"><symbol viewBox="0 0 22 19" id="1a5ddfad535d3d76db0393c87b981fe7" xmlns="http://www.w3.org/2000/svg"><path d="M19.779 5.198l-2.435 6.758H6.568L5.071 5.198zM.917 1.833h1.53l2.296 10.355c-1.095.482-1.872 1.663-1.872 3.043 0 1.805 1.329 3.274 2.962 3.274h12.155a.917.917 0 000-1.833H5.833c-.612 0-1.128-.66-1.128-1.441 0-.782.516-1.442 1.128-1.442h12.155a.917.917 0 00.862-.606l3.096-8.591a.917.917 0 00-.863-1.227H4.665L4.078.718A.916.916 0 003.184 0H.917a.917.917 0 000 1.833z"/></symbol></svg>