<svg aria-hidden="true" width="0" height="0" style="position:absolute"><symbol viewBox="0 0 18 18" id="5a0299aaa093520d0b1b642cb28926de" xmlns="http://www.w3.org/2000/svg"><path d="M16.118 12.287a3.453 3.453 0 01-3.452 3.452H5.592a3.453 3.453 0 01-3.453-3.452V5.213a3.453 3.453 0 013.453-3.452h7.074a3.453 3.453 0 013.452 3.452zM12.666 0H5.592A5.22 5.22 0 00.38 5.213v7.074A5.22 5.22 0 005.592 17.5h7.074a5.22 5.22 0 005.213-5.213V5.213A5.22 5.22 0 0012.666 0z"/><path d="M9.129 11.516a2.766 2.766 0 110-5.532 2.766 2.766 0 010 5.532zm0-7.292A4.531 4.531 0 004.603 8.75a4.531 4.531 0 004.526 4.526 4.531 4.531 0 004.526-4.526A4.531 4.531 0 009.13 4.224zM12.58 4.258a1.085 1.085 0 112.168 0 1.085 1.085 0 01-2.169 0z"/></symbol></svg>