<svg aria-hidden="true" width="0" height="0" style="position:absolute"><symbol viewBox="0 0 46 35" id="5458702580d696aca2cf39bf09fedd8b" xmlns="http://www.w3.org/2000/svg"><path d="M19.902 25.577h8.823l-6.617 5.79zm23.175-13.462c0 13.462 0 20.193-.003 20.193H25.12l8.073-7.064a1.346 1.346 0 00.332-1.587l-5.432-11.542zm-12.89 10.77H2.691c0-13.462.001-20.193.004-20.193h17.988zM21.578 35h21.495a2.691 2.691 0 002.696-2.692V12.115a2.69 2.69 0 00-2.69-2.692H26.826l-4.07-8.65A1.346 1.346 0 0021.539 0H2.696A2.691 2.691 0 000 2.692v20.193a2.69 2.69 0 002.69 2.692h14.33l3.26 8.556c.217.567.754.882 1.299.867z"/></symbol></svg>