<svg aria-hidden="true" width="0" height="0" style="position:absolute"><symbol viewBox="0 0 35 35" id="e66fdba4c4d9d9b85f2d578baec16d91" xmlns="http://www.w3.org/2000/svg"><path d="M3.364 31.54a.721.721 0 11.007-1.444.721.721 0 01-.007 1.443z"/><path d="M7.17 34.551H.5v-1.726h4.944v-8.85H.5v-1.727h6.67zM10.044 24.479c.4-.59.947-1.067 1.586-1.384a5.767 5.767 0 014.713-.086c.567.234 1.12.499 1.658.794.499.262 1.015.533 1.559.763.284.11.577.2.875.265.31.076.885.218.95.368.126.39.164.801.11 1.207l-3.866.057.025 1.727 10.692-.158 2.759-3.055a.634.634 0 011.099.368.632.632 0 01-.159.477l-2.99 3.337-11.781 1.903h-7.23zm19.889 6.287l3.398-3.791a2.359 2.359 0 00-3.508-3.156l-2.255 2.497-4.342.065a4.063 4.063 0 00-.26-1.875c-.406-.93-1.395-1.174-2.117-1.352a4.67 4.67 0 01-.617-.179c-.477-.202-.94-.444-1.429-.7a17.947 17.947 0 00-1.835-.875 7.49 7.49 0 00-6.13.16 5.676 5.676 0 00-2.418 2.28l-.103.19v8.76h9.096zM28.583 7.238a.822.822 0 01.449.127.85.85 0 010 1.439.827.827 0 01-.304.114l-4.023.697a2.733 2.733 0 00.742 5.413s2.808-.262 3.584-.29v1.9H11.436v-9.4zM35 3.905V2.07L29.5.05 18.879 5.513H9.712v12.85h21.045v-3.639c.286.01.569.02.845.042.172.01.345.017.517.017A8.702 8.702 0 0035 14.269v-1.846l-.024.01a7.094 7.094 0 01-3.26.611c-.314-.02-.632-.035-.96-.045a29.004 29.004 0 00-1.724.01c-.832.028-1.722.094-2.695.194l-1.063.11a1.009 1.009 0 01-.276-1.997l4.023-.697c.004 0 .008-.001.01-.004a2.537 2.537 0 001.726-1.16 2.574 2.574 0 00-2.174-3.942h-5.934l6.969-3.581z"/><path d="M19.484 12.8v-1.724h1.725V12.8z"/></symbol></svg>