<svg aria-hidden="true" width="0" height="0" style="position:absolute"><symbol viewBox="0 0 35 35" id="d813f133c44856fba83ae8762a99cdb2" xmlns="http://www.w3.org/2000/svg"><path d="M9.373 22.743a1.032 1.032 0 112.065 0 1.032 1.032 0 01-2.065 0z"/><path d="M27.722 21.67l5.242-5.242v5.242zm-4.084-4.534l9.326-9.326v6.07l-7.789 7.79h-1.537v-4.534zM14.694 33.2c.31-.504.74-1.118 1.094-1.625 1.079-1.541 2.422-3.459 2.966-5.293.405-1.364 1.135-1.374 2.963-1.06l.12.02V33.2zM2.301 27.41c.498-2.983 1.708-5.862 2.778-8.404.855-2.034 1.613-3.838 1.849-5.344h1.88c-.132 2.773-.893 3.916-1.698 5.125-.556.836-1.131 1.7-1.476 3.03-.333 1.285-.285 2.257-.234 3.286.08 1.62.179 3.627-1.142 8.095H2.3zM5.1 13.663c-.25 1.238-.924 2.844-1.682 4.645-.367.872-.75 1.784-1.117 2.727v-7.372zM19.014 2.134L13.43 7.72V2.134zm-5.585 8.134l8.133-8.133h5.827l-9.728 9.727H13.43zm8.408 9.613l-.007-.004c-2.22-1.142-2.56-3.19-2.92-5.358a48.16 48.16 0 00-.149-.856h3.076zM7.199 25.015c-.048-.964-.086-1.726.178-2.744.27-1.038.716-1.708 1.233-2.485.871-1.309 1.856-2.79 2-6.123h1.871c-.254 2.648.283 4.113.764 5.422.441 1.202.823 2.241.515 4.207-.326 2.09-1.249 2.729-2.317 3.467-.594.411-1.209.836-1.74 1.501-1.363 1.703-1.674 3.607-1.688 4.939H6.133c1.253-4.408 1.15-6.49 1.066-8.184zm14.638-1.601c-1.546-.26-3.946-.553-4.81 2.355-.46 1.553-1.71 3.338-2.714 4.772-.817 1.166-1.375 1.985-1.644 2.658H9.816c.014-1.043.256-2.517 1.293-3.814.367-.458.848-.791 1.358-1.144 1.17-.81 2.627-1.816 3.073-4.671.38-2.427-.121-3.79-.605-5.106-.462-1.26-.901-2.455-.644-4.8h2.638c.074.367.137.748.204 1.15.378 2.276.848 5.108 3.873 6.665.17.087.28.147.35.188.109.128.27.223.48.315v1.432zM32.964 5.263l-9.326 9.326v-2.727h-3.43l9.648-9.647-.08-.08h3.188v3.128zM11.627.333v11.529H.5V35h23.138V23.471h11.127V.333z"/></symbol></svg>