<svg aria-hidden="true" width="0" height="0" style="position:absolute"><symbol viewBox="0 0 18 18" id="9ed9dba595bdb84776ce015f1a9e434d" xmlns="http://www.w3.org/2000/svg"><path fill="#fbb03b" d="M5.778 7.167c.399 0 .722.323.722.722a.722.722 0 001.444 0 2.167 2.167 0 00-4.333 0 .722.722 0 001.445 0c0-.399.323-.722.722-.722zM11.556 5.722c-1.197 0-2.167.97-2.167 2.167a.722.722 0 001.444 0 .722.722 0 011.445 0 .722.722 0 001.444 0c0-1.197-.97-2.167-2.166-2.167z"/><path fill="#fbb03b" d="M8.667 16.555a7.222 7.222 0 110-14.444 7.222 7.222 0 010 14.444zm0-15.888a8.667 8.667 0 108.666 8.666A8.676 8.676 0 008.667.667z"/><path fill="#fbb03b" d="M11.045 10.989l-.423.424a2.835 2.835 0 01-3.91 0l-.423-.424a.723.723 0 00-1.022 1.022l.424.422a4.207 4.207 0 005.958 0l.425-.422a.723.723 0 00-1.022-1.022z"/></symbol></svg>