<svg aria-hidden="true" width="0" height="0" style="position:absolute"><symbol viewBox="0 0 19 16" id="350c61f710688d8db7c5c60133af2be8" xmlns="http://www.w3.org/2000/svg"><path d="M18.331 1.924a7.58 7.58 0 01-2.18.598 3.812 3.812 0 001.67-2.098 7.653 7.653 0 01-2.413.921 3.796 3.796 0 00-6.468 3.46A10.777 10.777 0 011.116.84a3.767 3.767 0 00-.513 1.908c0 1.317.67 2.479 1.688 3.159a3.796 3.796 0 01-1.72-.477v.048A3.8 3.8 0 003.617 9.2a3.845 3.845 0 01-1 .133c-.245 0-.482-.025-.714-.07a3.798 3.798 0 003.545 2.636A7.616 7.616 0 01.733 13.52c-.307 0-.609-.019-.906-.052a10.73 10.73 0 005.819 1.708c6.982 0 10.8-5.784 10.8-10.8l-.013-.492a7.58 7.58 0 001.898-1.96z"/></symbol></svg>