<svg id="Layer_1" data-name="Layer 1" xmlns="http://www.w3.org/2000/svg" viewBox="0 0 512 512"><title>do-not-bleach</title><path d="M512,512,350.61,198.29,466.47,82.43a20.35,20.35,0,0,0-28.78-28.77L331.05,160.28,248.61,0,173.93,153.8,73.76,53.66A20.34,20.34,0,0,0,45,82.43L155.12,192.54,0,512ZM43.36,484.86l4-8.19a19.54,19.54,0,0,0,26.43-1.54l182-182,182,182a19.43,19.43,0,0,0,25.83,2l4,7.78Zm384.48-77.14L284.51,264.39l46-46ZM249.31,60.7,310.9,180.43l-55.17,55.19-61.5-61.5ZM226.95,264.39,78.16,413.17l97.25-200.31Z"/></svg>