<svg xmlns="http://www.w3.org/2000/svg" width="22" height="15" viewBox="0 0 22 15"><g><g><path fill="gray" d="M20.974 6.86c-.178-.223-4.677-5.457-10.356-5.457-1.18 0-2.294.223-3.34.579l7.349 5.568c.156-.446.245-.913.245-1.403 0-.78-.223-1.493-.58-2.116 2.16.98 3.92 2.561 4.767 3.407a19.66 19.66 0 0 1-2.16 1.849l1.491 1.136c1.537-1.203 2.495-2.317 2.584-2.406a.937.937 0 0 0 0-1.158z"/></g><g><path fill="gray" d="M10.596 11.67c-3.831 0-7.194-2.962-8.463-4.232.645-.668 1.87-1.76 3.43-2.695l.868.646a4.606 4.606 0 0 0-.067.78 4.23 4.23 0 0 0 4.232 4.231c.668 0 1.291-.156 1.848-.445l1.38 1.047a8.293 8.293 0 0 1-3.228.668zm9.175 1.603L2.511.178c-.4-.29-.957-.223-1.247.178-.29.401-.223.958.178 1.247l2.606 1.982C1.776 5.055.328 6.748.218 6.86a.88.88 0 0 0 0 1.158c.178.223 4.676 5.457 10.378 5.457 1.781 0 3.43-.513 4.877-1.203l3.207 2.45a.96.96 0 0 0 .534.178.865.865 0 0 0 .713-.356c.312-.423.223-.98-.156-1.27z"/></g></g></svg>