<svg id="Layer_1" data-name="Layer 1" xmlns="http://www.w3.org/2000/svg" viewBox="0 0 512 512"><title>do-not-dry-clean</title><path d="M431.49,415a244,244,0,0,0,24.27-311.35l34.13-34.13A22.58,22.58,0,1,0,458,37.59L426.32,69.22a244.15,244.15,0,0,0-340.64,0L54.06,37.59A22.59,22.59,0,0,0,22.11,69.53l34.13,34.13A244,244,0,0,0,80.53,415L22.11,473.43a22.59,22.59,0,1,0,31.95,31.95L115,444.47a243.81,243.81,0,0,0,282.08,0L458,505.38a22.58,22.58,0,1,0,31.93-31.95Zm39.1-170.31a213.71,213.71,0,0,1-60.47,148.94L287.94,271.48,434.16,125.26A213.33,213.33,0,0,1,470.59,244.7ZM256,30.12A213.64,213.64,0,0,1,405,90.59L256,239.54,107,90.59A213.65,213.65,0,0,1,256,30.12ZM41.42,244.7A213.32,213.32,0,0,1,77.84,125.26L224.06,271.48,101.88,393.65A213.7,213.7,0,0,1,41.42,244.7ZM256,459.29a213.3,213.3,0,0,1-119.44-36.43L256,303.43,375.44,422.86A213.25,213.25,0,0,1,256,459.29Z"/></svg>