<svg xmlns="http://www.w3.org/2000/svg" width="11" height="10" viewBox="0 0 11 10"><g><g><path d="M10.628 4.046c-.04-.123-.14-.206-.438-.234l-2.722-.253c-.162-.015-.25-.08-.315-.228L6.072.82C5.953.544 5.844.476 5.714.476c-.13 0-.239.068-.358.344L4.275 3.33c-.064.15-.153.214-.315.229l-2.722.252C.94 3.84.84 3.922.8 4.046c-.04.123-.008.249.217.447l2.054 1.804c.122.107.156.212.12.37L2.59 9.334c-.066.293-.018.413.087.489.105.076.234.085.492-.068l2.35-1.396c.14-.083.25-.083.39 0l2.35 1.396c.258.153.387.144.492.068.105-.076.153-.196.087-.489l-.6-2.667c-.036-.158-.003-.263.12-.37l2.053-1.804c.225-.198.257-.324.217-.447z"/></g></g></svg>