<svg id="Layer_1" data-name="Layer 1" xmlns="http://www.w3.org/2000/svg" viewBox="0 0 512 512"><title>iron-low</title><path d="M274.59,356.39A18.58,18.58,0,1,1,256,337.83,18.58,18.58,0,0,1,274.59,356.39Z"/><path d="M457.25,476.32H5.29L2.62,465.84c-.66-2.59-15.57-64,33.7-127.35C104.33,251,255,205.71,484.14,204V90.45a26.92,26.92,0,0,0-26.89-26.89H28.58a13.94,13.94,0,0,1,0-27.87H457.25A54.82,54.82,0,0,1,512,90.45V421.57A54.81,54.81,0,0,1,457.25,476.32ZM28.16,448.46H457.25a26.93,26.93,0,0,0,26.89-26.89V231.84C210.44,234,101.49,300,58.33,355.59,28.51,394,26.82,431,28.16,448.46Z"/></svg>