<svg id="Layer_1" data-name="Layer 1" xmlns="http://www.w3.org/2000/svg" viewBox="0 0 512 512"><title>machine-wash-normal-hot</title><path d="M504.23,120.93A11.79,11.79,0,0,0,489.09,128l-9.53,26.16c-.31,0-.58-.18-.9-.18-32.21,0-48.78,14-63.39,26.43-13.2,11.18-24.57,20.83-48.13,20.83s-34.93-9.65-48.12-20.83C304.4,168,287.84,154,255.62,154s-48.75,14-63.36,26.43c-13.18,11.18-24.55,20.83-48.08,20.83s-34.92-9.65-48.1-20.83C81.47,168,64.91,154,32.71,154c-.11,0-.2.06-.31.06l-9.48-26a11.81,11.81,0,0,0-22.2,8.08L91,384c0,.1.12.19.15.29.16.38.4.7.59,1.06a11.73,11.73,0,0,0,1.67,2.48,11.14,11.14,0,0,0,1,.93,12.1,12.1,0,0,0,2.4,1.62,11.1,11.1,0,0,0,5.29,1.4H407.61c.37,0,.7-.19,1.07-.22s.84.22,1.26.22A11.84,11.84,0,0,0,421,384l90.25-248A11.82,11.82,0,0,0,504.23,120.93ZM401.67,368.16H110.33L41.14,178.06c18,2,28.17,10.61,39.66,20.37,14.62,12.39,31.18,26.43,63.38,26.43s48.75-14,63.36-26.43c13.17-11.18,24.55-20.83,48.08-20.83s34.93,9.65,48.12,20.83c14.62,12.39,31.18,26.43,63.4,26.43s48.78-14,63.41-26.43c11.62-9.87,21.89-18.51,40.33-20.42Z"/><path d="M204.76,283.4c-6.62-4.14-14.73-5.79-23.17-5.79a60.8,60.8,0,0,0-8.77.5L177,250.47H218V238.22H166.53l-6.95,51.64a115.45,115.45,0,0,1,15.06-1c21.34,0,30.77,9.76,30.77,23.66.17,14.4-11.75,23.34-25.32,23.34a48.34,48.34,0,0,1-23.17-6L153.29,341c5.29,3.31,15.05,6.62,26.8,6.62,23.34,0,40.05-15.73,40.05-36.74C220.15,297.47,213.2,288,204.76,283.4Z"/><path d="M274.71,236.41c-21.84,0-37.56,19.69-37.56,55.94.33,35.58,14.73,55.28,35.74,55.28,23.67,0,37.41-20.19,37.41-56.77C310.29,256.59,297.22,236.41,274.71,236.41Zm-1,100c-13.24,0-21.85-15.88-21.85-43.85,0-29.29,9.26-44.85,21.85-44.85,15.22,0,21.84,17.38,21.84,43.86C295.56,319,288.45,336.36,273.72,336.36Z"/><path d="M339.7,226.31c-10.26,0-16.88,6.78-16.88,15.55,0,8.44,6.95,15.06,16.71,15.06,9.43,0,16.55-6.45,16.55-15.06C356.08,232.93,349.63,226.31,339.7,226.31Zm-.17,24.49c-5,0-8.27-4.46-8.27-8.94,0-5.13,3-9.43,8.11-9.43,5.29,0,8.61,4.14,8.61,9.27C348,246.66,344.66,250.8,339.53,250.8Z"/></svg>